<?xml version="1.0" encoding="UTF-8"?>
<svg xmlns="http://www.w3.org/2000/svg" xmlns:xlink="http://www.w3.org/1999/xlink" width="392.17" height="275.073" viewBox="0 0 392.17 275.073">
  <defs>
    <clipPath id="a">
      <path d="M27.884,77.341a75.5,75.5,0,0,0,6.247,30.165A66.033,66.033,0,0,0,1.5,164.631c0,36.418,29.217,65.939,65.262,65.939a64.9,64.9,0,0,0,13.413-1.4,70.3,70.3,0,0,0,130.7,3.178A61.621,61.621,0,0,0,291.613,207a84.175,84.175,0,0,0,16.608,1.655c46.556,0,84.3-38.073,84.3-85.042s-37.745-85.036-84.3-85.036a83.406,83.406,0,0,0-34.1,7.247c-11.994-21.367-34.51-35.757-60.325-35.757a68.518,68.518,0,0,0-49.584,21.286A75.966,75.966,0,0,0,27.884,77.341" transform="translate(-1.5 -1.5)" fill="none"></path>
    </clipPath>
    <linearGradient id="b" x1="-0.002" y1="1.003" x2="-0.001" y2="1.003" gradientUnits="objectBoundingBox">
      <stop offset="0" stop-color="#005aa0"></stop>
      <stop offset="0.771" stop-color="#0f9bd7"></stop>
      <stop offset="1" stop-color="#0f9bd7"></stop>
    </linearGradient>
    <clipPath id="c">
      <rect width="392.17" height="275.073" fill="none"></rect>
    </clipPath>
    <linearGradient id="d" x1="-0.001" y1="1.001" x2="0.001" y2="1.001" gradientUnits="objectBoundingBox">
      <stop offset="0" stop-color="#0f9bd7"></stop>
      <stop offset="0.229" stop-color="#0f9bd7"></stop>
      <stop offset="1" stop-color="#005aa0"></stop>
    </linearGradient>
  </defs>
  <g transform="translate(0.689 0.689)">
    <g clip-path="url(#a)">
      <rect width="391.022" height="273.694" transform="translate(0 0)" fill="url(#b)"></rect>
    </g>
  </g>
  <g clip-path="url(#c)">
    <path d="M124.632,272.816c-.247.644.086.776.167.886a23.347,23.347,0,0,0,2.23,1.35,23.836,23.836,0,0,0,11.695,2.73c8.023,0,13.005-4.264,13.005-11.132v-.132c0-6.35-5.626-8.66-10.9-10.327l-.69-.219c-3.977-1.293-7.408-2.408-7.408-5.029v-.132c0-2.242,2.006-3.891,5.115-3.891a23.1,23.1,0,0,1,10.189,2.609s.782.5,1.063-.253c.155-.408,1.489-4,1.632-4.391a.748.748,0,0,0-.391-.9A22.759,22.759,0,0,0,138.85,240.9l-.8.006c-7.344,0-12.471,4.437-12.471,10.792v.132c0,6.695,5.655,8.873,10.954,10.385l.851.265c3.862,1.184,7.189,2.207,7.189,4.919v.138c0,2.482-2.167,4.333-5.649,4.333a18.933,18.933,0,0,1-10.333-2.971c-.563-.334-.885-.569-1.322-.834a.642.642,0,0,0-1.057.362Z" transform="translate(-67.311 -130.197)" fill="#fff"></path>
    <path d="M380.158,272.816c-.247.644.086.776.167.886a23.351,23.351,0,0,0,2.23,1.35,23.836,23.836,0,0,0,11.695,2.73c8.023,0,13.005-4.264,13.005-11.132v-.132c0-6.35-5.626-8.66-10.9-10.327l-.69-.219c-3.977-1.293-7.408-2.408-7.408-5.029v-.132c0-2.242,2.006-3.891,5.115-3.891a23.1,23.1,0,0,1,10.189,2.609s.782.5,1.063-.253c.155-.408,1.488-4,1.632-4.391a.748.748,0,0,0-.391-.9,22.744,22.744,0,0,0-11.494-3.086l-.8.006c-7.344,0-12.471,4.437-12.471,10.792v.132c0,6.695,5.661,8.873,10.954,10.385l.851.265c3.862,1.184,7.2,2.207,7.2,4.919v.138c0,2.482-2.166,4.333-5.655,4.333a18.944,18.944,0,0,1-10.333-2.971c-.563-.334-.9-.558-1.322-.834a.679.679,0,0,0-1.051.362Z" transform="translate(-205.413 -130.197)" fill="#fff"></path>
    <path d="M531.971,252.287a16.111,16.111,0,0,0-3.046-5.816,14.644,14.644,0,0,0-5.144-3.908,18.585,18.585,0,0,0-14.355,0,14.621,14.621,0,0,0-5.138,3.914,16.05,16.05,0,0,0-3.046,5.81,26.68,26.68,0,0,0,0,14.39,16.128,16.128,0,0,0,3.046,5.816,14.356,14.356,0,0,0,5.144,3.879,19.059,19.059,0,0,0,14.349,0,14.4,14.4,0,0,0,5.144-3.879,16.113,16.113,0,0,0,3.046-5.816,26.678,26.678,0,0,0,0-14.39m-6.695,7.195c0,3.879-.724,6.942-2.149,9.1-1.414,2.138-3.546,3.183-6.517,3.183s-5.1-1.045-6.488-3.183c-1.408-2.161-2.12-5.224-2.12-9.1s.712-6.931,2.115-9.068c1.4-2.115,3.517-3.144,6.494-3.144s5.1,1.029,6.517,3.144c1.425,2.137,2.149,5.2,2.149,9.068" transform="translate(-270.369 -130.317)" fill="#fff"></path>
    <path d="M658.6,270.692a.636.636,0,0,0-.856-.4,15.155,15.155,0,0,1-3.115.885,23.374,23.374,0,0,1-3.667.264,10.224,10.224,0,0,1-7.66-2.868c-1.845-1.908-2.885-4.989-2.874-9.155a14.207,14.207,0,0,1,2.569-8.816c1.632-2.161,4.12-3.27,7.431-3.27a22.477,22.477,0,0,1,7.074,1.011s.529.23.776-.46c.592-1.632,1.023-2.787,1.649-4.574a.6.6,0,0,0-.42-.788,26.133,26.133,0,0,0-4.465-1.132,34.087,34.087,0,0,0-5.023-.333,18.261,18.261,0,0,0-7.46,1.437,15.43,15.43,0,0,0-5.4,3.9,16.517,16.517,0,0,0-3.253,5.816,22.993,22.993,0,0,0-1.092,7.212c0,5.552,1.494,10.04,4.454,13.322,2.965,3.3,7.414,4.977,13.218,4.977a27.347,27.347,0,0,0,9.482-1.69.612.612,0,0,0,.27-.8Z" transform="translate(-342.014 -130.282)" fill="#fff" fill-rule="evenodd"></path>
    <path d="M727.636,251.033a14.1,14.1,0,0,0-2.9-5.3,13.246,13.246,0,0,0-4.3-3.282,16.508,16.508,0,0,0-6.494-1.316,17.756,17.756,0,0,0-7.482,1.454,14.876,14.876,0,0,0-5.218,3.983,16.419,16.419,0,0,0-3.069,5.885,25.425,25.425,0,0,0-.995,7.229,24.223,24.223,0,0,0,1.029,7.235,14.512,14.512,0,0,0,8.982,9.54,22.747,22.747,0,0,0,8.229,1.328c6.546-.017,9.994-1.477,11.413-2.265.253-.143.489-.385.2-1.086l-1.489-4.149a.653.653,0,0,0-.851-.391,21.842,21.842,0,0,1-9.3,1.673c-3.517-.006-6.12-1.04-7.752-2.667-1.672-1.655-2.5-4.092-2.638-7.534l22.66.017a.669.669,0,0,0,.661-.592,24.309,24.309,0,0,0-.678-9.758M705.1,255.768a13.2,13.2,0,0,1,1.833-5.344,7.215,7.215,0,0,1,6.477-3.293,7.033,7.033,0,0,1,6.35,3.293,11.183,11.183,0,0,1,1.506,5.35Z" transform="translate(-376.799 -130.322)" fill="#fff" fill-rule="evenodd"></path>
    <path d="M332.646,251.033a14.1,14.1,0,0,0-2.9-5.3,13.184,13.184,0,0,0-4.3-3.282,16.521,16.521,0,0,0-6.488-1.316,17.765,17.765,0,0,0-7.488,1.454,14.876,14.876,0,0,0-5.218,3.983,16.42,16.42,0,0,0-3.069,5.885,25.424,25.424,0,0,0-.994,7.229,24.225,24.225,0,0,0,1.029,7.235,14.512,14.512,0,0,0,8.982,9.54,22.747,22.747,0,0,0,8.229,1.328c6.546-.017,9.994-1.477,11.413-2.265.253-.143.489-.385.2-1.086l-1.488-4.149a.653.653,0,0,0-.851-.391,21.843,21.843,0,0,1-9.3,1.673c-3.511-.006-6.12-1.04-7.752-2.667-1.672-1.655-2.5-4.092-2.638-7.534l22.66.017a.669.669,0,0,0,.661-.592,24.3,24.3,0,0,0-.678-9.758m-22.539,4.735a13.283,13.283,0,0,1,1.828-5.344,7.238,7.238,0,0,1,6.482-3.293,7.043,7.043,0,0,1,6.356,3.293,11.245,11.245,0,0,1,1.5,5.35Z" transform="translate(-163.321 -130.322)" fill="#fff" fill-rule="evenodd"></path>
    <path d="M210.856,254.64c-.919-.069-2.109-.1-3.534-.1a21.392,21.392,0,0,0-5.586.719,14.637,14.637,0,0,0-4.73,2.189,10.6,10.6,0,0,0-4.5,8.959,11.769,11.769,0,0,0,1.04,5.178,9.326,9.326,0,0,0,2.954,3.546,12.432,12.432,0,0,0,4.615,2,27.066,27.066,0,0,0,6.006.615,41.454,41.454,0,0,0,6.885-.574c2.224-.38,4.948-.931,5.706-1.109s1.586-.4,1.586-.4a.713.713,0,0,0,.517-.742l-.011-20.723c0-4.551-1.213-7.919-3.6-10.011s-5.885-3.132-10.413-3.132a37.477,37.477,0,0,0-6.075.557s-4.948.96-6.982,2.557a.708.708,0,0,0-.207.9l1.6,4.31a.578.578,0,0,0,.747.368,2.908,2.908,0,0,0,.374-.189,23.052,23.052,0,0,1,9.873-2.3,9.188,9.188,0,0,1,5.6,1.465c1.236.954,1.862,2.379,1.862,5.4v.96c-1.942-.282-3.736-.443-3.736-.443m-9.017,15.924a4.356,4.356,0,0,1-1.3-1.345,5.39,5.39,0,0,1-.684-2.947,4.961,4.961,0,0,1,2.023-4.385c-.011,0,1.954-1.7,6.575-1.638a45.894,45.894,0,0,1,6.155.523v10.3a46.394,46.394,0,0,1-6.12.81c-4.609.282-6.661-1.328-6.644-1.322" transform="translate(-104.043 -130.278)" fill="#fff"></path>
    <path d="M605.623,243.446a.616.616,0,0,0-.339-.816,20.573,20.573,0,0,0-3.8-.649,11.25,11.25,0,0,0-5.845.943,10.143,10.143,0,0,0-3.827,2.827l-.006-2.764a.653.653,0,0,0-.649-.684h-5.81a.653.653,0,0,0-.65.684V276.8a.683.683,0,0,0,.69.684h5.954a.682.682,0,0,0,.684-.684v-16.89a19.8,19.8,0,0,1,.753-5.948,8.435,8.435,0,0,1,1.982-3.334,6.887,6.887,0,0,1,2.8-1.684,10.958,10.958,0,0,1,3.034-.431,12.488,12.488,0,0,1,2.488.311c.443.046.684-.224.833-.615.385-1.034,1.494-4.143,1.7-4.758" transform="translate(-316.008 -130.763)" fill="#fff" fill-rule="evenodd"></path>
    <path d="M462.611,210.212a17.985,17.985,0,0,0-2.242-.528,17.237,17.237,0,0,0-3.08-.241c-4.1,0-7.327,1.161-9.6,3.448-2.252,2.27-3.787,5.73-4.557,10.275l-.276,1.535h-5.144a.76.76,0,0,0-.759.661l-.844,4.713c-.063.448.131.729.735.729h5.011l-5.086,28.367a35.555,35.555,0,0,1-1.356,5.586,11.37,11.37,0,0,1-1.581,3.224,4.224,4.224,0,0,1-2.074,1.6,8.551,8.551,0,0,1-2.667.379,10.189,10.189,0,0,1-1.815-.2,5.349,5.349,0,0,1-1.224-.391.629.629,0,0,0-.822.363c-.184.482-1.517,4.155-1.678,4.609a.671.671,0,0,0,.351.9,17.156,17.156,0,0,0,2.069.6,13.64,13.64,0,0,0,3.322.316,16.563,16.563,0,0,0,5.563-.862,10.514,10.514,0,0,0,4.189-2.919,15.087,15.087,0,0,0,2.943-5.075,43.419,43.419,0,0,0,1.994-7.615l5.1-28.89h7.466a.76.76,0,0,0,.758-.661l.845-4.713c.057-.448-.132-.729-.736-.729h-7.246a30.225,30.225,0,0,1,1.195-5.109,6.545,6.545,0,0,1,1.592-2.419,4.731,4.731,0,0,1,1.9-1.184,7.994,7.994,0,0,1,2.431-.345,9.71,9.71,0,0,1,1.862.184c.7.149.977.23,1.161.281.736.23.833.011.982-.345l1.73-4.758a.606.606,0,0,0-.414-.793" transform="translate(-228.887 -113.196)" fill="#fff" fill-rule="evenodd"></path>
    <path d="M279.675,260.088a.658.658,0,0,1-.649.69h-6.011a.658.658,0,0,1-.649-.69V211.717a.653.653,0,0,1,.649-.684h6.011a.653.653,0,0,1,.649.684Z" transform="translate(-147.203 -114.056)" fill="#fff" fill-rule="evenodd"></path>
    <path d="M163.345,30.49A68.976,68.976,0,0,1,213.26,9.063c25.99,0,48.657,14.489,60.725,35.991l-.4.225-.187-.42a83.849,83.849,0,0,1,34.283-7.287c46.813,0,84.676,38.282,84.76,85.5-.085,47.22-37.947,85.5-84.76,85.5a84.658,84.658,0,0,1-16.7-1.664l.091-.45.4.225a62.08,62.08,0,0,1-81.346,25.543l.2-.413.423.18a70.763,70.763,0,0,1-131.549-3.2l.431-.159.1.449a65.331,65.331,0,0,1-13.509,1.407c-36.3,0-65.655-29.731-65.721-66.4a66.492,66.492,0,0,1,32.858-57.521l.232.4-.421.183a76.4,76.4,0,0,1,130.873-76.62l-.73.558a75.467,75.467,0,0,0-129.3,75.7l.163.374-.352.206a65.573,65.573,0,0,0-32.4,56.727c0,36.167,29.015,65.414,64.8,65.48a64.4,64.4,0,0,0,13.319-1.387l.389-.082.137.373a69.844,69.844,0,0,0,129.841,3.157l.189-.446.435.212a61.161,61.161,0,0,0,80.141-25.167l.164-.292.328.066a83.759,83.759,0,0,0,16.518,1.646c46.3-.085,83.841-37.864,83.841-84.582s-37.542-84.492-83.841-84.577A82.932,82.932,0,0,0,273.772,45.7l-.383.171-.205-.366C261.266,24.274,238.9,9.982,213.26,9.982a68.055,68.055,0,0,0-49.252,21.145l-.663-.636Z" transform="translate(-0.27 -0.27)" fill="url(#d)"></path>
  </g>
  <text transform="translate(59.827 194.337)" fill="#fff" font-size="35" font-family="DM Sans, sans-serif" font-weight="700">
    <tspan x="0" y="0" letter-spacing="-10">P</tspan>
    <tspan y="0" letter-spacing="-10">a</tspan>
    <tspan y="0" letter-spacing="-10">r</tspan>
    <tspan y="0" letter-spacing="-10">t</tspan>
    <tspan y="0" letter-spacing="-10">n</tspan>
    <tspan y="0" letter-spacing="-10">e</tspan>
    <tspan y="0" letter-spacing="-10">r</tspan>
  </text>
</svg>